# xmcd CD database file
#
# Track frame offsets:
#	183
#	14328
#	29103
#	44208
#	58645
#	72533
#	86913
#	101088
#	115653
#	132038
#	145763
#	161138
#	175130
#	189815
#	204295
#	218298
#	232978
#	246795
#	260713
#
# Disc length: 3687 seconds
#
# Revision: 1
# Processed by: cddbd v1.5.2PL0 Copyright (c) Steve Scherf et al.
# Submitted via: CDex 1.70beta2
#
DISCID=120e6513
DTITLE=Louis Amstrong - Gut Bucket Blues
DYEAR=1900
DGENRE=Jazz
TTITLE0=Big butter and egg man from the west
TTITLE1=Willie the weeper
TTITLE2=Wild man blues
TTITLE3=Alligator crawl
TTITLE4=Potato head blues
TTITLE5=Melancholy blues
TTITLE6=Weary blues
TTITLE7=Twelfth street rag
TTITLE8=Keyhole blues
TTITLE9=S.O.L. blues
TTITLE10=Gully low blues
TTITLE11=That's when I'll come back to you
TTITLE12=Put'em down blues
TTITLE13=Ory's creole trombone
TTITLE14=Struttin'with some barbecue
TTITLE15=Once in a while
TTITLE16=I'm not rough
TTITLE17=Hotter than that
TTITLE18=Savoy blues
EXTD=
EXTT0=
EXTT1=
EXTT2=
EXTT3=
EXTT4=
EXTT5=
EXTT6=
EXTT7=
EXTT8=
EXTT9=
EXTT10=
EXTT11=
EXTT12=
EXTT13=
EXTT14=
EXTT15=
EXTT16=
EXTT17=
EXTT18=
PLAYORDER=
